<?xml version="1.0" encoding="UTF-8" standalone="no"?>
<!-- Created with Inkscape (http://www.inkscape.org/) -->

<svg
   width="1200"
   height="400"
   viewBox="0 0 317.5 105.83334"
   version="1.1"
   id="svg1"
   inkscape:version="1.4.2 (ebf0e940d0, 2025-05-08)"
   sodipodi:docname="muxly.svg"
   xmlns:inkscape="http://www.inkscape.org/namespaces/inkscape"
   xmlns:sodipodi="http://sodipodi.sourceforge.net/DTD/sodipodi-0.dtd"
   xmlns="http://www.w3.org/2000/svg"
   xmlns:svg="http://www.w3.org/2000/svg">
  <sodipodi:namedview
     id="namedview1"
     pagecolor="#ffffff"
     bordercolor="#000000"
     borderopacity="0.25"
     inkscape:showpageshadow="2"
     inkscape:pageopacity="0.0"
     inkscape:pagecheckerboard="0"
     inkscape:deskcolor="#2f2f2f"
     inkscape:document-units="mm"
     inkscape:zoom="1.4929298"
     inkscape:cx="595.13848"
     inkscape:cy="176.83349"
     inkscape:window-width="2540"
     inkscape:window-height="1375"
     inkscape:window-x="0"
     inkscape:window-y="0"
     inkscape:window-maximized="1"
     inkscape:current-layer="layer1" />
  <defs
     id="defs1">
    <rect
       x="482.27319"
       y="329.55334"
       width="3458.9705"
       height="852.01593"
       id="rect2" />
    <rect
       x="482.27319"
       y="329.55334"
       width="3458.9705"
       height="852.01593"
       id="rect2-9" />
  </defs>
  <g
     inkscape:label="Layer 1"
     inkscape:groupmode="layer"
     id="layer1">
    <rect
       style="fill:#e8e8e8;fill-opacity:1;stroke:#000000;stroke-width:6.61458;stroke-dasharray:none;stroke-opacity:1"
       id="rect1"
       width="300.52084"
       height="88.854164"
       x="8.4895782"
       y="8.4895849"
       ry="25.874744"
       inkscape:label="Outline"
       rx="20.558025"
       sodipodi:insensitive="true" />
    <g
       id="g3"
       inkscape:label="Text"
       style="display:none;stroke-width:3.95767"
       sodipodi:insensitive="true"
       transform="matrix(0.25434783,0,0,0.25101117,5.9609977,6.0467796)">
      <g
         id="text2-9"
         style="font-size:11.4371px;font-family:'Atkinson Hyperlegible';-inkscape-font-specification:'Atkinson Hyperlegible';text-align:center;letter-spacing:-0.428889px;white-space:pre;fill:#000000;fill-opacity:1;stroke:#000000;stroke-width:3.20769;stroke-dasharray:none;stroke-opacity:1;paint-order:stroke markers fill"
         transform="matrix(34.063812,0,0,27.930647,-74742.167,-9181.2052)"
         aria-label="Muxly">
        <path
           style="font-family:Fredoka;-inkscape-font-specification:Fredoka;fill:#000000;fill-opacity:1;stroke:#000000;stroke-width:3.20769;stroke-linejoin:bevel;stroke-dasharray:none;stroke-opacity:1"
           d="m 2198.9435,340.30314 q -0.2059,0 -0.3202,-0.0686 -0.103,-0.0686 -0.1487,-0.18299 -0.046,-0.12581 -0.046,-0.27449 v -6.95376 q 0,-0.14868 0.046,-0.25161 0.046,-0.11437 0.1601,-0.183 0.1144,-0.0686 0.3317,-0.0686 0.1715,0 0.2745,0.0229 0.1029,0.0229 0.1601,0.0686 0.069,0.0343 0.1372,0.11437 l 2.9851,4.32322 h -0.3545 l 3.0194,-4.35753 q 0.069,-0.0801 0.1372,-0.11437 0.069,-0.0343 0.1716,-0.0457 0.1143,-0.0114 0.263,-0.0114 0.2173,0 0.3203,0.0686 0.1143,0.0686 0.1601,0.19443 0.046,0.11437 0.046,0.26306 v 6.95375 q 0,0.13725 -0.046,0.25162 -0.046,0.11437 -0.1601,0.18299 -0.1144,0.0686 -0.3317,0.0686 -0.2059,0 -0.3203,-0.0686 -0.1029,-0.0686 -0.1486,-0.18299 -0.034,-0.12581 -0.034,-0.27449 v -5.74142 l -2.4475,3.60268 q -0.034,0.0572 -0.091,0.11437 -0.057,0.0457 -0.1487,0.0801 -0.08,0.0343 -0.2058,0.0343 -0.1373,0 -0.2173,-0.0343 -0.069,-0.0343 -0.1259,-0.0801 -0.057,-0.0572 -0.1143,-0.12581 l -2.4361,-3.57981 v 5.75286 q 0,0.13725 -0.046,0.25162 -0.034,0.11437 -0.1487,0.18299 -0.1029,0.0686 -0.3202,0.0686 z m 10.6194,0.0114 q -0.5033,0 -0.9379,-0.18299 -0.4232,-0.18299 -0.7434,-0.51467 -0.3202,-0.33168 -0.5032,-0.8006 -0.1716,-0.46892 -0.1716,-1.06365 v -2.48185 q 0,-0.16012 0.034,-0.27449 0.034,-0.11437 0.1373,-0.17155 0.1143,-0.0686 0.3317,-0.0686 0.2173,0 0.3202,0.0686 0.1144,0.0686 0.1487,0.18299 0.034,0.11437 0.034,0.27449 v 2.48185 q 0,0.46892 0.1601,0.83491 0.1601,0.35455 0.4804,0.54898 0.3316,0.19443 0.8006,0.19443 0.4803,0 0.8234,-0.19443 0.3546,-0.19443 0.5376,-0.54898 0.1944,-0.36599 0.1944,-0.83491 v -2.49329 q 0,-0.16012 0.034,-0.27449 0.034,-0.11437 0.1373,-0.17155 0.1143,-0.0686 0.3316,-0.0686 0.2173,0 0.3203,0.0686 0.1143,0.0686 0.1372,0.18299 0.034,0.11437 0.034,0.27449 v 4.54053 q 0,0.13724 -0.034,0.25161 -0.023,0.10294 -0.1372,0.16012 -0.103,0.0572 -0.3203,0.0572 -0.1601,0 -0.263,-0.0343 -0.091,-0.0343 -0.1373,-0.0915 -0.046,-0.0572 -0.069,-0.12581 -0.011,-0.0801 -0.011,-0.16012 l 0.046,-0.49179 q -0.1143,0.13724 -0.2745,0.29736 -0.1601,0.16012 -0.3774,0.3088 -0.2059,0.13725 -0.4689,0.22875 -0.2631,0.0915 -0.5947,0.0915 z m 7.8515,-5.46693 q 0.1601,0.12581 0.2173,0.24018 0.057,0.10293 0.012,0.24018 -0.046,0.12581 -0.2059,0.3088 l -3.6141,4.44903 q -0.1487,0.17156 -0.2631,0.22874 -0.1143,0.0686 -0.2287,0.0343 -0.103,-0.0343 -0.2516,-0.14868 -0.1487,-0.12581 -0.2059,-0.22874 -0.046,-0.11437 0,-0.24018 0.057,-0.12581 0.2059,-0.3088 l 3.6141,-4.44903 q 0.2287,-0.25162 0.366,-0.27449 0.1372,-0.0343 0.3545,0.14868 z m -4.3118,0 q 0.1487,-0.11437 0.2517,-0.14868 0.1143,-0.0343 0.2173,0.0343 0.1029,0.0686 0.2401,0.24018 l 3.6142,4.44903 q 0.1601,0.18299 0.2058,0.3088 0.057,0.12581 0,0.24018 -0.046,0.10293 -0.2058,0.22874 -0.1373,0.11437 -0.2517,0.14868 -0.1029,0.0343 -0.2173,-0.0343 -0.1143,-0.0572 -0.263,-0.22874 l -3.6141,-4.44903 q -0.1602,-0.18299 -0.2059,-0.3088 -0.046,-0.13725 0,-0.24018 0.057,-0.11437 0.2287,-0.24018 z"
           id="path2" />
        <path
           style="font-family:Fredoka;-inkscape-font-specification:Fredoka;fill:#000000;fill-opacity:1;stroke:#000000;stroke-width:3.20769;stroke-dasharray:none;stroke-opacity:1"
           d="m 2220.1079,340.30314 q -0.366,0 -0.6634,-0.0686 -0.2859,-0.0572 -0.5032,-0.19443 -0.2173,-0.13724 -0.366,-0.35455 -0.1373,-0.2173 -0.2059,-0.5261 -0.057,-0.30881 -0.057,-0.72054 v -5.71855 q 0,-0.17156 0.023,-0.28593 0.034,-0.11437 0.1487,-0.17156 0.1144,-0.0686 0.3202,-0.0686 0.2288,0 0.3317,0.0572 0.1144,0.0572 0.1487,0.17155 0.034,0.11437 0.034,0.27449 v 5.72999 q 0,0.22874 0.046,0.4003 0.046,0.16012 0.1373,0.27449 0.1029,0.11437 0.2516,0.16012 0.1487,0.0457 0.3546,0.0457 0.1372,0 0.2287,0.0343 0.1029,0.0343 0.1601,0.13724 0.057,0.10294 0.057,0.32024 0,0.22875 -0.057,0.34312 -0.057,0.10293 -0.1601,0.1258 -0.091,0.0343 -0.2287,0.0343 z m 1.6984,2.21879 q -0.2745,-0.11437 -0.3203,-0.26305 -0.046,-0.14868 0.08,-0.41174 l 3.0308,-6.80507 q 0.1258,-0.26305 0.2631,-0.32024 0.1487,-0.0686 0.4117,0.0457 0.2745,0.12581 0.3088,0.27449 0.046,0.14868 -0.069,0.4003 l -3.0537,6.83938 q -0.1144,0.26306 -0.2516,0.30881 -0.1373,0.0457 -0.4003,-0.0686 z m 1.1323,-2.95077 -2.6191,-4.03729 q -0.1487,-0.22875 -0.1144,-0.37743 0.034,-0.16012 0.263,-0.3088 0.2517,-0.16012 0.4003,-0.11437 0.1602,0.0343 0.3203,0.26305 l 2.2188,3.48832 z"
           id="path3" />
      </g>
      <text
         xml:space="preserve"
         transform="matrix(34.063813,0,0,27.930647,-74750.091,-9181.8444)"
         id="text2"
         style="font-style:normal;font-variant:normal;font-weight:normal;font-stretch:normal;font-size:11.4371px;font-family:'Atkinson Hyperlegible';-inkscape-font-specification:'Atkinson Hyperlegible';text-align:center;letter-spacing:-0.428889px;writing-mode:lr-tb;direction:ltr;white-space:pre;shape-inside:url(#rect2);display:inline;fill:#000000;fill-opacity:1;stroke:none;stroke-width:3.20769;stroke-dasharray:none;stroke-opacity:1;paint-order:stroke markers fill"
         x="15.889091"
         y="0"><tspan
           x="2197.6397"
           y="340.18877"
           id="tspan9"><tspan
             style="font-family:Fredoka;-inkscape-font-specification:Fredoka;fill:#00d000"
             id="tspan6">Mux</tspan><tspan
             style="font-family:Fredoka;-inkscape-font-specification:Fredoka;fill:#1f241c"
             id="tspan8">ly</tspan></tspan></text>
    </g>
    <g
       id="g5"
       inkscape:label="Text2"
       transform="matrix(0.25434783,0,0,0.25101117,-2.6949853,6.0467796)"
       style="display:inline;stroke-width:0.593651;stroke-dasharray:none">
      <g
         id="text4-3"
         style="font-size:349.044px;line-height:0;font-family:Fredoka;-inkscape-font-specification:Fredoka;text-align:center;letter-spacing:-13.2292px;text-anchor:middle;display:inline;fill:#000000;fill-opacity:1;stroke:#000000;stroke-width:36.6497;stroke-linejoin:miter;stroke-dasharray:none;stroke-opacity:1;paint-order:stroke fill markers"
         aria-label="Muxly"
         transform="translate(5.4573161,5.445209)">
        <path
           style="font-style:italic;font-weight:bold;font-family:Inter;-inkscape-font-specification:'Inter Bold Italic';fill:#000000;fill-opacity:1;stroke:#000000;stroke-width:36.6497;stroke-linejoin:miter;stroke-dasharray:none;stroke-opacity:1"
           d="M 153.82237,314.16241 195.91898,60.219265 h 76.18295 l 22.32654,118.620425 q 1.36346,8.18072 2.89734,19.77007 1.53388,11.58935 3.2382,24.37173 1.70432,12.78237 2.89734,24.37172 1.36345,11.41892 2.04518,19.25878 l -12.78237,-0.85216 q 3.2382,-7.83986 8.18071,-19.25878 5.11295,-11.58935 10.90763,-24.37172 5.79468,-12.78238 11.07806,-24.37173 5.45381,-11.58935 9.20331,-19.77007 L 393.27883,60.219265 h 76.69424 L 427.87645,314.16241 h -51.47036 l 20.11094,-121.17689 q 1.53388,-8.52159 3.57906,-20.28137 2.21561,-11.75978 4.77209,-25.05345 2.7269,-13.4641 5.28338,-27.09863 2.55647,-13.80497 4.60165,-26.076044 l 6.4764,1.02259 q -6.30597,13.293664 -12.78237,27.439494 -6.4764,14.14583 -12.61194,27.60993 -5.96511,13.29366 -11.41892,24.54215 -5.28338,11.07806 -9.03288,18.74748 L 312.32379,314.16241 H 269.71588 L 246.36675,192.98552 q -1.70432,-10.2259 -4.09036,-26.41691 -2.38604,-16.36144 -4.94252,-35.27935 -2.55647,-18.91791 -5.11295,-36.813234 l 7.15813,1.02259 q -1.87475,12.271074 -3.91993,26.076044 -1.87474,13.63453 -3.74949,27.09863 -1.70432,13.29367 -3.40864,25.05345 -1.53388,11.75978 -3.06777,20.11093 l -19.9405,120.32474 z m 360.18653,3.7495 q -19.08834,0 -32.04115,-8.18072 -12.78237,-8.35115 -18.06575,-24.20129 -5.11295,-16.02058 -1.36345,-38.68798 L 481.28603,134.1866 h 50.1069 l -17.21359,103.45201 q -2.89734,18.06575 4.26079,27.60992 7.15813,9.37374 22.83784,9.37374 10.39633,0 19.08834,-4.26079 8.69201,-4.26079 14.65712,-13.29367 5.96511,-9.03287 8.35115,-22.83784 L 599.90645,134.1866 h 50.10691 l -29.82554,179.97581 h -49.42518 l 7.66943,-46.8687 h 8.69201 q -12.44151,23.86043 -30.50727,37.32453 -18.06575,13.29367 -42.60791,13.29367 z m 112.8902,-3.7495 89.81747,-103.452 -4.77208,22.32654 -50.78863,-98.85035 h 53.17467 l 11.58935,25.22388 q 4.94252,11.41892 9.03288,22.15612 4.26079,10.73719 8.69201,21.47438 h -16.191 q 8.35115,-10.73719 16.02057,-21.47438 7.83986,-10.7372 16.87273,-22.15612 l 20.28137,-25.22388 h 56.5833 l -85.21582,98.85035 4.60166,-22.32654 53.68596,103.452 H 757.10887 L 743.8152,286.55249 q -4.94251,-11.24849 -9.20331,-21.47439 -4.09035,-10.39633 -8.69201,-20.79266 h 13.80496 q -8.01028,10.39633 -15.85014,20.79266 -7.83985,10.2259 -16.87273,21.47439 l -23.00827,27.60992 z"
           id="path4" />
        <path
           style="font-style:italic;font-weight:bold;font-family:Inter;-inkscape-font-specification:'Inter Bold Italic';fill:#000000;fill-opacity:1;stroke:#000000;stroke-width:36.6497;stroke-linejoin:miter;stroke-dasharray:none;stroke-opacity:1"
           d="M 909.19836,60.219265 867.10175,314.16241 H 816.82441 L 858.92103,60.219265 Z m -24.58021,325.183575 6.64683,-39.71057 h 22.83784 q 5.96511,0 10.05547,-2.04518 4.09036,-1.87475 7.32856,-6.13554 3.40863,-4.09036 6.98769,-10.90763 l 7.15813,-13.12323 -39.54014,-179.29409 h 50.6182 l 15.33885,88.96532 q 2.55647,15.67971 4.60165,31.70028 2.04518,15.85015 4.09036,31.87072 h -14.31626 q 6.9877,-16.02057 14.48669,-31.87072 7.499,-16.02057 15.33885,-31.70028 l 44.99393,-88.96532 h 54.1973 L 981.76418,341.94277 q -8.01029,14.65712 -17.55446,24.37173 -9.54417,9.7146 -21.13352,14.31626 -11.41892,4.77208 -25.22388,4.77208 -8.18072,0 -16.70231,0 -8.35115,0 -16.53186,0 z"
           id="path5" />
      </g>
      <text
         xml:space="preserve"
         style="font-style:normal;font-variant:normal;font-weight:normal;font-stretch:normal;font-size:349.044px;line-height:0;font-family:Fredoka;-inkscape-font-specification:Fredoka;text-align:center;letter-spacing:-13.2292px;writing-mode:lr-tb;direction:ltr;text-anchor:middle;fill:#000000;fill-opacity:1;stroke:#000000;stroke-width:0.593651;stroke-linejoin:bevel;stroke-dasharray:none;stroke-opacity:1;paint-order:stroke fill markers"
         x="616.11066"
         y="314.16241"
         id="text4"><tspan
           sodipodi:role="line"
           id="tspan4"
           style="font-style:italic;font-variant:normal;font-weight:bold;font-stretch:normal;font-size:349.044px;font-family:Inter;-inkscape-font-specification:'Inter Bold Italic';stroke:none;stroke-width:0.593651;stroke-dasharray:none"
           x="609.49603"
           y="314.16241"><tspan
             style="font-size:349.044px;fill:#00ff00;stroke-width:0.593651;stroke-dasharray:none"
             id="tspan1">Mux</tspan><tspan
             style="font-size:349.044px;fill:#1f241c;stroke-width:0.593651;stroke-dasharray:none"
             id="tspan3">ly</tspan></tspan></text>
    </g>
  </g>
</svg>
